<svg id="Layer_1" data-name="Layer 1" xmlns="http://www.w3.org/2000/svg" viewBox="0 0 546.01 173.38"><defs><style>.cls-1{fill:#0070ad;}.cls-2{fill:#12abdb;}.cls-3{fill:#007eaf;}</style></defs><title>Altran_Part-of-Capgemini-2</title><path class="cls-1" d="M487.29,131.15c0-3.21-.19-5.34-2.28-5.34a6,6,0,0,0-2.26.46c.74,10.83-1.71,20.37-4.69,20.37-3.92,0-2-23.21-10.26-23.21-7.65,0-8.75,18.53-9.62,18.53-.6,0-.68-4.87-.65-8.58a27.25,27.25,0,0,0,.49-4.59c0-1.72-.7-4.71-4.62-3.21.14,13.24-2.52,21.26-5.5,21.26-4.38,0-4.43-12-4.43-15.33s.23-7.56-4.57-6c-.72,11.56-3.75,20.28-5.65,20.28-2.85,0-2.28-20-8.44-20-5.53,0-7.25,18.91-8.4,18.91-2.06,0,.65-21.29-7.35-21.29-4.19,0-5.86,7.11-7.5,15.06-.32,1.55-.65,1.59-.71-.15,0-1.43-.05-3,0-4.46,2-8-.45-10.95-4.15-8.81,1.19,14.75-5.58,22-10.78,22a5.72,5.72,0,0,1-4.46-2.07c6.23-3.82,9-8.21,9-12.49,0-4.64-2.66-7.32-7.1-7.32-6.18,0-9.64,6.37-9.64,11.78a18.4,18.4,0,0,0,1.44,7.42c-2.12,1-4.12,1.89-6,2.75-.16-5.57-.79-11.42-1.27-16.81-3.29-.91-4.25.67-4.5,3.6-.58,6.69-3.06,10.84-5.25,10.84-1.65,0-2.65-2-2.77-4.14-.61-10.71,8.08-13.69,12.63-12.14.95-2.36-.09-4.06-4.19-4.06-5,0-8.7,3-11.43,6.9a31.39,31.39,0,0,1-6.72,6.64,17.62,17.62,0,0,0,.11-1.91c0-7.55-4.09-10.87-8-10.87-3.23,0-5.27,1.94-6.45,4.92-.29-3-.88-4.27-2.61-4.27a7,7,0,0,0-2.89.74,35.3,35.3,0,0,1,.71,7.79c0,9.09-2.6,13.16-5.11,13.16-2.86,0-3.32-10.78-3.56-15a3.79,3.79,0,0,0-1.4-.26c-2.59,0-2.92,3.48-3.56,6.68-.71,3.54-2.75,8-5.78,8-1.82,0-3-1.77-3.11-4.93-.29-6.43,5.05-14,13.41-11.67,1.1-2.56-.62-4.51-4.09-4.51-6.11,0-11.16,4.58-13.37,10-2.24,5-6.15,12.25-14.12,12.25-5.62,0-9.93-4.9-9.93-15.19,0-8.88,5.6-17.31,11.57-17.31,4.17,0,5.14,4.11,4.77,8,2.16,1.74,5.71.13,5.71-4.21,0-3-2.43-8.06-10.26-8.06-9.7,0-18.27,9.67-18.27,22.38,0,12.31,6.24,19.58,15.09,19.58,5.57,0,10.84-3.18,14.47-9,.91,5.14,4.42,7.3,7,7.3,4.26,0,7-2.75,8.55-6.47.94,3.73,2.94,6.49,6.25,6.49a6.65,6.65,0,0,0,5.53-3.09c-.54,13-1.23,21.24,6.44,19.61-1.19-3.68-1.56-10.4-1.56-16.42,0-16.49,2.72-21.92,6.13-21.92,2.46,0,3.26,3.15,3.26,6.51a25.25,25.25,0,0,1-.62,5.73c-4.2,2.64-7.54,4.73-7.54,7.38,0,2.1,1.55,2.29,2.9,2.29,3.22,0,7.09-3.16,9.23-9.11a29.34,29.34,0,0,0,5.54-4.2c-.06.61-.1,1.22-.1,1.83,0,5.92,2.6,9.49,6.73,9.49,3.23,0,5.66-2.29,7.38-5.73.11,2,.17,3.8.2,5.48-6.56,3-13.83,6.12-13.83,14.69a7.43,7.43,0,0,0,7.37,7.77c9.15,0,11.23-9.66,11.32-20.87,3-1.3,5.19-2.29,7.76-3.56a10.31,10.31,0,0,0,7.89,4.12c5.16,0,9-2.74,12.15-8.29.56,4.23,1.65,8.29,3.9,8.29,4.09,0,4.92-21.4,8-21.4,2.33,0,.42,23.15,6.57,23.15,5.27,0,6.26-20.38,8.83-20.38,1.82,0,2,18.63,7.69,18.63,2.82,0,5.89-3.39,7.42-10.5.72,4.73,3.11,10.5,7.77,10.5,2.72,0,5.06-2.75,6.87-6.41.5,3.76,1.56,6.41,3.62,6.41,5.36,0,5.18-21.36,9.43-21.36,3.31,0,2.28,21.36,10.17,21.36,3.75,0,5.52-3.2,6.58-7.21,1.45,5.9,3.8,7.21,5.72,7.21,1.22,0,2.15-.43,3.36-1.87C486.78,147,487.29,137.36,487.29,131.15Zm-129,36.67c-1.89,0-2.89-1.8-2.89-3.83,0-5.48,4-8.39,9-10.88C364.11,165.08,361.33,167.82,358.25,167.82ZM382.87,129c1.84,0,2.9,1.69,2.71,4.12-.21,2.86-2.29,6.13-5.91,8.71C377.78,136.46,379.19,129,382.87,129Z"/><path class="cls-1" d="M441.26,120.91a3.2,3.2,0,0,0,3-3.36,2.9,2.9,0,0,0-3-3.14,3.37,3.37,0,0,0-3.2,3.36A3.07,3.07,0,0,0,441.26,120.91Z"/><path class="cls-1" d="M484.94,121.82a3.15,3.15,0,0,0,2.91-3.2,2.86,2.86,0,0,0-2.89-3,3.15,3.15,0,0,0-2.91,3.2A2.87,2.87,0,0,0,484.94,121.82Z"/><path class="cls-2" d="M533.59,147.2a10.79,10.79,0,0,0,10.74-10.74c-.42-2.54-1.31-7.24-7.91-7.24-7.22,0-9.61,10.08-15.49,16.58-.47,3.7-4,7-8.34,7.57,1.07,1.12,3.45,1.72,6.29,1.72,5.21,0,11.51-1.57,14.8-4.82-4.39.06-7.22-2.77-7.5-6.69A9.07,9.07,0,0,0,533.59,147.2Z"/><path class="cls-1" d="M544.32,136c-.13-6.76-3.36-12.48-8.32-17a44.69,44.69,0,0,0-12.94-8l-1.14-.46h0c-5.79,6.92-25.81,12.09-25.81,26.61A14.35,14.35,0,0,0,505,150.24a13.19,13.19,0,0,0,9.16.19,15.85,15.85,0,0,0,6.81-4.63c5.88-6.5,8.27-16.58,15.49-16.58,6.6,0,7.49,4.7,7.91,7.24C544.33,136.45,544.33,136.28,544.32,136Z"/><path class="cls-1" d="M192,129.87a10.26,10.26,0,0,1,5.81,1.38,4.87,4.87,0,0,1,2,4.32,5.87,5.87,0,0,1-.54,2.63,4.59,4.59,0,0,1-1.57,1.79,7.19,7.19,0,0,1-2.52,1,15.64,15.64,0,0,1-3.39.33H190.2v6.13H187V130.3a15.57,15.57,0,0,1,2.45-.34C190.38,129.9,191.2,129.87,192,129.87Zm.22,2.74c-.8,0-1.46,0-2,.08v5.93h1.53a7.75,7.75,0,0,0,3.52-.65,2.46,2.46,0,0,0,1.23-2.42,2.83,2.83,0,0,0-.33-1.43,2.38,2.38,0,0,0-.9-.91,4.42,4.42,0,0,0-1.37-.46A10.17,10.17,0,0,0,192.18,132.61Z"/><path class="cls-1" d="M205.57,134a7.47,7.47,0,0,1,2.54.38,3.81,3.81,0,0,1,2.53,2.7,7.9,7.9,0,0,1,.26,2.12v8c-.47.1-1.18.22-2.12.36a22,22,0,0,1-3.21.22,9.67,9.67,0,0,1-2.16-.23,4.47,4.47,0,0,1-1.67-.73,3.39,3.39,0,0,1-1.08-1.31,4.48,4.48,0,0,1-.39-2,3.88,3.88,0,0,1,.44-1.91,3.62,3.62,0,0,1,1.19-1.27,5.35,5.35,0,0,1,1.75-.7,9.16,9.16,0,0,1,3.13-.15,9.51,9.51,0,0,1,1.18.21v-.5a4.17,4.17,0,0,0-.12-1,2.28,2.28,0,0,0-.45-.84,2,2,0,0,0-.82-.56,3.52,3.52,0,0,0-1.3-.2,11.46,11.46,0,0,0-1.93.15,8.21,8.21,0,0,0-1.44.35l-.37-2.46a11.43,11.43,0,0,1,1.68-.41A13.57,13.57,0,0,1,205.57,134Zm.25,11.34a11.12,11.12,0,0,0,2.14-.16v-3.36a6,6,0,0,0-.73-.15,6.79,6.79,0,0,0-1-.08,7,7,0,0,0-1,.08,3.17,3.17,0,0,0-.93.27,1.76,1.76,0,0,0-.67.57,1.64,1.64,0,0,0-.25.92,1.6,1.6,0,0,0,.68,1.49A3.44,3.44,0,0,0,205.82,145.33Z"/><path class="cls-1" d="M220.32,137.06a10,10,0,0,0-1-.27,7.87,7.87,0,0,0-1.55-.13,5.74,5.74,0,0,0-1.06.1,6,6,0,0,0-.8.17v10.53h-3V135a16.09,16.09,0,0,1,2.2-.62A13.85,13.85,0,0,1,218,134a6.16,6.16,0,0,1,.7,0c.27,0,.54.06.81.1s.52.09.77.15.46.11.61.16Z"/><path class="cls-1" d="M222.11,130.85l3-.5v4h4.67v2.54h-4.67v5.35a3.85,3.85,0,0,0,.5,2.26,2,2,0,0,0,1.71.68,5.48,5.48,0,0,0,1.47-.18c.42-.12.76-.22,1-.32l.5,2.41a11.61,11.61,0,0,1-1.38.46,7.48,7.48,0,0,1-2,.24,6.19,6.19,0,0,1-2.35-.38,3.44,3.44,0,0,1-1.5-1.09,4.37,4.37,0,0,1-.78-1.73,10.92,10.92,0,0,1-.22-2.33Z"/><path class="cls-1" d="M249.49,140.88a8.54,8.54,0,0,1-.45,2.84,6.29,6.29,0,0,1-1.28,2.18,5.72,5.72,0,0,1-2,1.41,6.51,6.51,0,0,1-2.57.5,6.39,6.39,0,0,1-2.56-.5,5.77,5.77,0,0,1-2-1.41,6.65,6.65,0,0,1-1.3-2.18,8.54,8.54,0,0,1-.46-2.84,8.44,8.44,0,0,1,.46-2.83,6.46,6.46,0,0,1,1.31-2.17,5.74,5.74,0,0,1,2-1.4,6.57,6.57,0,0,1,2.54-.49,6.66,6.66,0,0,1,2.55.49,5.65,5.65,0,0,1,2,1.4,6.42,6.42,0,0,1,1.29,2.17A8.2,8.2,0,0,1,249.49,140.88Zm-3.11,0a5.11,5.11,0,0,0-.84-3.1,3,3,0,0,0-4.7,0,5.11,5.11,0,0,0-.84,3.1,5.24,5.24,0,0,0,.84,3.14,3,3,0,0,0,4.7,0A5.24,5.24,0,0,0,246.38,140.88Z"/><path class="cls-1" d="M256.43,128a8,8,0,0,1,1.86.19,11.3,11.3,0,0,1,1.2.34l-.57,2.51a5.33,5.33,0,0,0-1-.33,5.77,5.77,0,0,0-1.21-.12,3.16,3.16,0,0,0-1.23.21,2,2,0,0,0-.81.59,2.29,2.29,0,0,0-.42.92,4.82,4.82,0,0,0-.13,1.17v.88h4.77v2.54h-4.77v10.6h-3V133.39a5.63,5.63,0,0,1,1.33-4A5.19,5.19,0,0,1,256.43,128Z"/><path class="cls-3" d="M52.22,1.73h-.1c-11.34,0-24.89,2.14-33.66,9C11.57,16.08,25.51,22.78,37.92,17a29.2,29.2,0,0,1,11.8-2.69c19.09-.12,25.4,8,26,21.4-8.22,0-17.18,0-28.43.41C17,36.84,2,46.06,2,64.81,2,81.25,17.9,93.17,40,93.17c24.5,0,48.71-4.67,48.71-4.67,6.91-6.89,5.87-56.24,5.87-56.24C94.58,10.52,76,1.73,52.22,1.73ZM44.16,79.87c-15.37,0-22.32-8.44-22.32-15.58C21.84,54,32.23,51.09,50,50.46,60.89,50,69.35,50,75.76,50,74.94,68,80.88,79.87,44.16,79.87Z"/><path class="cls-3" d="M124.86,56.25V2.7h-19.6V70.41c0,19.64,19.6,19.58,19.6,19.58h48.06V75.72H144.33C124.86,75.72,124.86,75.7,124.86,56.25Z"/><path class="cls-3" d="M153.7,17h19C187,17,187,17,187,31V90h19.59V31c0-14,0-14,14-14h19.15V2.7H153.7Z"/><path class="cls-3" d="M339.49,28.9c0-17.28-14.41-26.2-33.6-26.2H252.28V90h19.59V55.56H295.6c17.73.22,24,4.08,24,20.62V90h19.87V74c0-12.67-2.55-20.49-13.26-23.7C334.37,45.55,339.51,37.92,339.49,28.9ZM298.52,42l-26.65,0V17h27.47c10.38,0,20.15,1.06,20.18,11.58S310,42,298.52,42Z"/><path class="cls-3" d="M400,1.73h-.11c-11.33,0-24.87,2.14-33.65,9-6.89,5.37,7,12.07,19.45,6.26a29.33,29.33,0,0,1,11.81-2.69c19.09-.12,25.4,8,26,21.4-8.22,0-17.18,0-28.44.41-30.34.75-45.33,10-45.31,28.72,0,16.44,15.89,28.36,38,28.36,24.5,0,48.71-4.67,48.71-4.67,6.9-6.89,5.87-56.24,5.87-56.24C442.34,10.52,423.75,1.73,400,1.73Zm-8.06,78.14c-15.36,0-22.31-8.44-22.31-15.58,0-10.29,10.37-13.2,28.15-13.83C408.64,50,417.1,50,423.52,50,422.71,68,428.64,79.87,391.92,79.87Z"/><path class="cls-3" d="M498.71,1.73h-.18c-24.91,0-43.49,12.42-43.45,37.69V90h18.4V39.42c0-14.15,8.62-22.9,25.08-22.92s25.19,8.76,25.22,22.92V90h18.39V39.42C542.13,14.2,523.53,1.73,498.71,1.73Z"/></svg>